<svg xmlns="http://www.w3.org/2000/svg" width="28.343" height="28.344" viewBox="0 0 28.343 28.344">
  <path id="logo-whatsapp-outline" d="M26.465,6.368a14.127,14.127,0,0,0-24.1,9.927,13.958,13.958,0,0,0,1.884,7.023l-2,7.276L9.731,28.64a14.148,14.148,0,0,0,6.744,1.708h.005A14.1,14.1,0,0,0,30.593,16.3a13.93,13.93,0,0,0-4.128-9.935Zm-9.983,21.61h-.005a11.752,11.752,0,0,1-5.97-1.627l-.428-.253-4.44,1.159,1.185-4.308-.279-.443a11.741,11.741,0,1,1,9.937,5.471Zm6.434-8.742c-.353-.175-2.088-1.025-2.409-1.142s-.559-.175-.794.175S18.8,19.408,18.6,19.645s-.411.263-.764.087A9.633,9.633,0,0,1,15,17.99a10.6,10.6,0,0,1-1.962-2.43c-.206-.351-.022-.542.155-.716.158-.157.353-.41.529-.615a2.367,2.367,0,0,0,.353-.586.647.647,0,0,0-.029-.615c-.087-.175-.794-1.9-1.087-2.606-.287-.685-.577-.591-.794-.6s-.443-.013-.677-.013a1.3,1.3,0,0,0-.94.439A3.934,3.934,0,0,0,9.31,13.175a6.835,6.835,0,0,0,1.44,3.631,15.664,15.664,0,0,0,6.023,5.3,20.443,20.443,0,0,0,2.011.739A4.859,4.859,0,0,0,21,22.983a3.632,3.632,0,0,0,2.381-1.669,2.934,2.934,0,0,0,.206-1.668c-.087-.146-.323-.235-.677-.41Z" transform="translate(-2.25 -2.25)" fill="#fff" fill-rule="evenodd"/>
</svg>
