<svg xmlns="http://www.w3.org/2000/svg" width="32.696" height="46.813" viewBox="0 0 32.696 46.813">
  <g id="lightbulb-line" transform="translate(-6.999 -2.25)">
    <path id="Path_3" data-name="Path 3" d="M23.348,2.25A16.347,16.347,0,0,0,7,18.6a15.872,15.872,0,0,0,1.486,6.881,24.313,24.313,0,0,0,1.664,2.645,25.264,25.264,0,0,1,2.972,5.157A24.06,24.06,0,0,1,14,39.224h2.972a27,27,0,0,0-1.055-6.97,27.433,27.433,0,0,0-3.3-5.826,23.465,23.465,0,0,1-1.486-2.289,12.84,12.84,0,0,1-1.159-5.573,13.427,13.427,0,0,1,26.854,0,12.84,12.84,0,0,1-1.278,5.6,23.467,23.467,0,0,1-1.486,2.289,27.434,27.434,0,0,0-3.284,5.8,27,27,0,0,0-1.055,7H32.7a24.06,24.06,0,0,1,.877-5.944,25.263,25.263,0,0,1,2.972-5.157,24.239,24.239,0,0,0,1.664-2.7,15.872,15.872,0,0,0,1.486-6.881A16.347,16.347,0,0,0,23.348,2.25Z" transform="translate(0 0)" fill="#fff"/>
    <path id="Path_4" data-name="Path 4" d="M20.638,15.624a1.189,1.189,0,0,0-1.679,0L14.5,20.082l4.25,4.652v8.233h2.437V23.782l-3.329-3.641,2.809-2.809a1.189,1.189,0,0,0-.03-1.709Z" transform="translate(3.646 6.332)" fill="#fff"/>
    <path id="Path_5" data-name="Path 5" d="M29.961,29.15H12.5a1.189,1.189,0,0,0,0,2.378H29.961a1.189,1.189,0,0,0,0-2.378Z" transform="translate(2.095 13.076)" fill="#fff"/>
    <path id="Path_6" data-name="Path 6" d="M26.278,32.15H14.389a1.189,1.189,0,1,0,0,2.378H26.278a1.189,1.189,0,0,0,0-2.378Z" transform="translate(3.014 14.535)" fill="#fff"/>
    <path id="Path_7" data-name="Path 7" d="M18.748,11.028l-4.057,4.057a1.189,1.189,0,0,0,1.679,1.679l4.057-4.087A1.189,1.189,0,1,0,18.748,11Z" transform="translate(3.589 4.062)" fill="#fff"/>
  </g>
</svg>
