<svg xmlns="http://www.w3.org/2000/svg" viewBox="336.12 0 167.88 152.72">
  <g id="Group_239" data-name="Group 239" transform="translate(-292.652 -2202.407)">
    <text id="SAIBA_COMO_FUNCIONA" data-name="SAIBA COMO FUNCIONA" transform="translate(292.652 2375.171)" fill="#fe10c4" font-size="60" font-family="MuseoSans-900, 'Museo Sans \39 00'" font-weight="900" letter-spacing="-0.05em"><tspan x="135" y="56"/><tspan fill="#fff"><tspan x="180" y="120"/></tspan></text>
    <g id="Group_168" data-name="Group 168" transform="translate(67.455 1438.732)">
      <g id="Group_165" data-name="Group 165" transform="translate(561.32 763.676)">
        <g id="Group_135" data-name="Group 135" transform="translate(18.896 30.856)">
          <rect id="Rectangle_82" data-name="Rectangle 82" width="123.708" height="88.364" fill="#fff"/>
        </g>
        <g id="Group_136" data-name="Group 136" transform="translate(18.056 30.017)">
          <path id="Path_74" data-name="Path 74" d="M696.387,869.81H571V779.768H696.387Zm-123.708-1.679H694.708V781.447H572.679Z" transform="translate(-571 -779.768)" fill="#fe10c4"/>
        </g>
        <g id="Group_137" data-name="Group 137" transform="translate(28.336 36.734)">
          <path id="Path_75" data-name="Path 75" d="M597.878,839.529a104.876,104.876,0,0,1-21.367-2.186v19.727H679.065v-73.7C674.782,814.926,640.069,839.529,597.878,839.529Z" transform="translate(-576.511 -783.369)" fill="#2680eb"/>
        </g>
        <g id="Group_138" data-name="Group 138" transform="translate(27.866 36.62)">
          <path id="Path_76" data-name="Path 76" d="M597.8,840.422a105.946,105.946,0,0,1-21.537-2.2l.341-1.643a104.353,104.353,0,0,0,21.2,2.167c41.52,0,76.067-23.831,80.359-55.435l1.662.228C675.414,815.966,640.151,840.422,597.8,840.422Z" transform="translate(-576.259 -783.308)" fill="#05398b"/>
        </g>
        <g id="Group_139" data-name="Group 139" transform="translate(32.072 49.755)">
          <path id="Path_77" data-name="Path 77" d="M664.155,792.031h-5.038V790.35h5.038Zm-10.076,0h-5.038V790.35h5.038Zm-10.074,0h-5.038V790.35H644Zm-10.076,0H628.89V790.35h5.038Zm-10.074,0h-5.038V790.35h5.038Zm-10.076,0h-5.036V790.35h5.036Zm-10.074,0h-5.038V790.35H603.7Zm-10.076,0H588.59V790.35h5.036Zm-10.074,0h-5.038V790.35h5.038Z" transform="translate(-578.514 -790.35)" fill="#05398b"/>
        </g>
        <g id="Group_140" data-name="Group 140" transform="translate(32.072 66.224)">
          <path id="Path_78" data-name="Path 78" d="M661.139,800.858h-2.022v-1.679h2.022Zm-7.06,0h-5.038v-1.679h5.038Zm-10.074,0h-5.038v-1.679H644Zm-10.076,0H628.89v-1.679h5.038Zm-10.074,0h-5.038v-1.679h5.038Zm-10.076,0h-5.036v-1.679h5.036Zm-10.074,0h-5.038v-1.679H603.7Zm-10.076,0H588.59v-1.679h5.036Zm-10.074,0h-5.038v-1.679h5.038Z" transform="translate(-578.514 -799.179)" fill="#05398b"/>
        </g>
        <g id="Group_141" data-name="Group 141" transform="translate(28.336 81.068)">
          <path id="Path_79" data-name="Path 79" d="M642,808.816h-5.038v-1.679H642Zm-10.074,0h-5.038v-1.679h5.038Zm-10.076,0h-5.038v-1.679h5.038Zm-10.074,0h-5.038v-1.679h5.038Zm-10.076,0h-5.038v-1.679H601.7Zm-10.074,0h-5.038v-1.679h5.038Zm-10.076,0h-5.038v-1.679h5.038Z" transform="translate(-576.511 -807.137)" fill="#05398b"/>
        </g>
        <g id="Group_142" data-name="Group 142" transform="translate(32.072 83.793)">
          <path id="Path_80" data-name="Path 80" d="M593.627,810.277H588.59V808.6h5.036Zm-10.074,0h-5.038V808.6h5.038Z" transform="translate(-578.514 -808.598)" fill="#0f0f10"/>
        </g>
        <g id="Group_143" data-name="Group 143" transform="translate(27.86 5.737)">
          <path id="Path_81" data-name="Path 81" d="M576.993,792.05l-.738-1.509,48.688-23.79,47.586,23.793-.751,1.5-46.845-23.422Z" transform="translate(-576.256 -766.751)" fill="#fe10c4"/>
        </g>
        <g id="Group_144" data-name="Group 144" transform="translate(75.233 3.912)">
          <rect id="Rectangle_83" data-name="Rectangle 83" width="14.73" height="1.679" transform="translate(0 7.364) rotate(-29.994)" fill="#fe10c4"/>
        </g>
        <g id="Group_147" data-name="Group 147" transform="translate(154.172 110.899)">
          <g id="Group_145" data-name="Group 145" transform="translate(0 6.015)">
            <rect id="Rectangle_84" data-name="Rectangle 84" width="13.704" height="1.679" fill="#fe10c4"/>
          </g>
          <g id="Group_146" data-name="Group 146" transform="translate(6.012)">
            <rect id="Rectangle_85" data-name="Rectangle 85" width="1.679" height="13.706" fill="#fe10c4"/>
          </g>
        </g>
        <g id="Group_150" data-name="Group 150" transform="translate(30.096)">
          <g id="Group_148" data-name="Group 148" transform="translate(0 6.013)">
            <rect id="Rectangle_86" data-name="Rectangle 86" width="13.704" height="1.679" fill="#fe10c4"/>
          </g>
          <g id="Group_149" data-name="Group 149" transform="translate(6.012)">
            <rect id="Rectangle_87" data-name="Rectangle 87" width="1.679" height="13.705" fill="#fe10c4"/>
          </g>
        </g>
        <g id="Group_151" data-name="Group 151" transform="translate(72.699 127.712)">
          <rect id="Rectangle_88" data-name="Rectangle 88" width="12.625" height="1.679" fill="#fe10c4"/>
        </g>
        <g id="Group_152" data-name="Group 152" transform="translate(81.86 138.158)">
          <rect id="Rectangle_89" data-name="Rectangle 89" width="25.341" height="1.679" fill="#fe10c4"/>
        </g>
        <g id="Group_153" data-name="Group 153" transform="translate(127.739 130.662)">
          <rect id="Rectangle_90" data-name="Rectangle 90" width="9.751" height="1.679" fill="#fe10c4"/>
        </g>
        <g id="Group_154" data-name="Group 154" transform="translate(146.461 45.411)">
          <path id="Path_82" data-name="Path 82" d="M644.8,797.935a4.957,4.957,0,1,1,4.956-4.956A4.962,4.962,0,0,1,644.8,797.935Zm0-8.235a3.278,3.278,0,1,0,3.277,3.279A3.284,3.284,0,0,0,644.8,789.7Z" transform="translate(-639.839 -788.021)" fill="#fe10c4"/>
        </g>
        <g id="Group_155" data-name="Group 155" transform="translate(115.231 127.165)">
          <path id="Path_83" data-name="Path 83" d="M627.229,840.117a4.133,4.133,0,1,1,4.132-4.135A4.14,4.14,0,0,1,627.229,840.117Zm0-6.588a2.454,2.454,0,1,0,2.453,2.453A2.458,2.458,0,0,0,627.229,833.529Z" transform="translate(-623.096 -831.85)" fill="#fe10c4"/>
        </g>
        <g id="Group_156" data-name="Group 156" transform="translate(0 62.757)">
          <rect id="Rectangle_91" data-name="Rectangle 91" width="69.268" height="89.962" fill="#fe10c4"/>
        </g>
        <g id="Group_157" data-name="Group 157" transform="translate(6.753 76.909)">
          <path id="Path_84" data-name="Path 84" d="M570.083,816.583l-5.143-5.142,1.188-1.187,3.854,3.854,7.807-9.2,1.279,1.086Z" transform="translate(-564.94 -804.907)" fill="#fff"/>
        </g>
        <g id="Group_158" data-name="Group 158" transform="translate(7.653 94.002)">
          <path id="Path_85" data-name="Path 85" d="M570.564,825.747l-5.141-5.143,1.187-1.187,3.852,3.854,7.807-9.2,1.279,1.086Z" transform="translate(-565.423 -814.071)" fill="#fff"/>
        </g>
        <g id="Group_159" data-name="Group 159" transform="translate(8.55 111.094)">
          <path id="Path_86" data-name="Path 86" d="M571.048,834.91l-5.144-5.143,1.187-1.187,3.855,3.854,7.807-9.2,1.279,1.086Z" transform="translate(-565.904 -823.234)" fill="#fff"/>
        </g>
        <g id="Group_160" data-name="Group 160" transform="translate(25.039 76.552)">
          <rect id="Rectangle_92" data-name="Rectangle 92" width="35.984" height="8.696" fill="#fff"/>
        </g>
        <g id="Group_161" data-name="Group 161" transform="translate(25.039 95.445)">
          <rect id="Rectangle_93" data-name="Rectangle 93" width="35.984" height="8.695" fill="#fff"/>
        </g>
        <g id="Group_162" data-name="Group 162" transform="translate(25.039 114.334)">
          <rect id="Rectangle_94" data-name="Rectangle 94" width="35.984" height="8.696" fill="#fff"/>
        </g>
        <g id="Group_163" data-name="Group 163" transform="translate(25.039 133.226)">
          <rect id="Rectangle_95" data-name="Rectangle 95" width="35.984" height="8.698" fill="#fff"/>
        </g>
        <g id="Group_164" data-name="Group 164" transform="translate(9.804 131.487)">
          <path id="Path_87" data-name="Path 87" d="M571.614,844.243a5.038,5.038,0,1,1,5.04-5.038A5.045,5.045,0,0,1,571.614,844.243Zm0-8.4a3.358,3.358,0,1,0,3.359,3.359A3.363,3.363,0,0,0,571.614,835.846Z" transform="translate(-566.576 -834.167)" fill="#fff"/>
        </g>
      </g>
      <g id="Group_166" data-name="Group 166" transform="translate(574.784 811.62)">
        <path id="Path_88" data-name="Path 88" d="M608.767,800.647H596.9v-5.9a5.371,5.371,0,0,0-10.742,0v5.9H574.283a5.764,5.764,0,0,0-5.745,5.747h45.974A5.764,5.764,0,0,0,608.767,800.647Z" transform="translate(-568.538 -789.379)" fill="#fff"/>
      </g>
      <g id="Group_167" data-name="Group 167" transform="translate(573.945 810.781)">
        <path id="Path_89" data-name="Path 89" d="M615.741,807.623H568.088v-.839a6.6,6.6,0,0,1,6.584-6.588H585.7v-5.057a6.211,6.211,0,0,1,12.421,0V800.2h11.031a6.6,6.6,0,0,1,6.585,6.588Zm-45.9-1.679h44.152a4.916,4.916,0,0,0-4.835-4.068h-12.71v-6.737a4.532,4.532,0,0,0-9.063,0v6.737h-12.71A4.913,4.913,0,0,0,569.84,805.944Z" transform="translate(-568.088 -788.929)" fill="#05398b"/>
      </g>
    </g>
  </g>
</svg>