<svg xmlns="http://www.w3.org/2000/svg" width="49.295" height="49.288" viewBox="0 0 49.295 49.288">
  <path id="logo-whatsapp-outline" d="M43.33,9.237A23.966,23.966,0,0,0,2.45,26.077a23.679,23.679,0,0,0,3.2,11.914L2.25,50.335l12.691-3.314a24,24,0,0,0,11.441,2.9h.009A23.92,23.92,0,0,0,50.333,26.091a23.632,23.632,0,0,0-7-16.854ZM26.393,45.9h-.009a19.938,19.938,0,0,1-10.128-2.76l-.727-.429L8,44.675l2.01-7.309-.473-.751A19.918,19.918,0,1,1,26.393,45.9ZM37.308,31.066c-.6-.3-3.541-1.739-4.086-1.937s-.948-.3-1.346.3S30.33,31.359,29.98,31.76s-.7.446-1.3.148a16.343,16.343,0,0,1-4.812-2.955,17.983,17.983,0,0,1-3.328-4.123c-.35-.6-.038-.919.263-1.215.269-.267.6-.7.9-1.043a4.015,4.015,0,0,0,.6-.994,1.1,1.1,0,0,0-.049-1.043c-.148-.3-1.346-3.229-1.844-4.421-.487-1.162-.978-1-1.346-1.021-.35-.017-.751-.021-1.148-.021a2.2,2.2,0,0,0-1.6.745,6.673,6.673,0,0,0-2.094,4.967c0,2.928,2.146,5.761,2.442,6.159s4.218,6.411,10.218,8.99A34.682,34.682,0,0,0,30.3,37.187a8.243,8.243,0,0,0,3.767.237c1.149-.171,3.541-1.441,4.039-2.832a4.977,4.977,0,0,0,.35-2.83c-.148-.247-.548-.4-1.148-.7Z" transform="translate(-1.538 -1.75)" fill="#026be4" stroke="#fff" stroke-width="1" fill-rule="evenodd"/>
</svg>
