<svg xmlns="http://www.w3.org/2000/svg" width="42.594" height="42.594" viewBox="0 0 42.594 42.594">
  <g id="user-avatar" transform="translate(-2.25 -2.25)">
    <path id="Path_8" data-name="Path 8" d="M23.547,2.25a21.3,21.3,0,1,0,21.3,21.3A21.3,21.3,0,0,0,23.547,2.25ZM14.42,39.336V36.294a4.9,4.9,0,0,1,4.564-5.141H28.11a4.9,4.9,0,0,1,4.564,5.157v3.042a18.133,18.133,0,0,1-18.254,0Zm21.3-2.222v-.928A7.925,7.925,0,0,0,28.11,28.11H18.983a7.91,7.91,0,0,0-7.606,8.078v.9a18.254,18.254,0,1,1,24.339,0Z" transform="translate(0 0)" fill="#026be4"/>
    <path id="Path_9" data-name="Path 9" d="M19.981,7.875a7.606,7.606,0,1,0,7.606,7.606,7.606,7.606,0,0,0-7.606-7.606Zm0,12.17a4.564,4.564,0,1,1,4.564-4.564A4.564,4.564,0,0,1,19.981,20.045Z" transform="translate(3.566 1.981)" fill="#026be4"/>
  </g>
</svg>
