<svg xmlns="http://www.w3.org/2000/svg" viewBox="11.22 68 307.17 257.21">
  <g id="Group_237" data-name="Group 237" transform="translate(-1017.191 -4262.085)">
    <text id="planejamento_mensal" data-name="planejamento mensal" transform="translate(1017.191 4262.085)" fill="#00398b" font-size="47" font-family="MuseoSans-900, 'Museo Sans \39 00'" font-weight="900" letter-spacing="-0.05em"><tspan x="135" y="44"/><tspan fill="#fe10c4"><tspan x="310" y="86"/></tspan></text>
    <g id="Group_40" data-name="Group 40" transform="translate(1028.404 4330.085)">
      <g id="Group_5" data-name="Group 5" transform="translate(42.652 37.679)">
        <rect id="Rectangle_15" data-name="Rectangle 15" width="22.186" height="3.054" fill="#fe10c4"/>
      </g>
      <g id="Group_6" data-name="Group 6" transform="translate(52.218 28.113)">
        <rect id="Rectangle_16" data-name="Rectangle 16" width="3.053" height="22.186" fill="#fe10c4"/>
      </g>
      <g id="Group_7" data-name="Group 7" transform="translate(250.9 230.813)">
        <rect id="Rectangle_17" data-name="Rectangle 17" width="22.186" height="3.054" fill="#fe10c4"/>
      </g>
      <g id="Group_8" data-name="Group 8" transform="translate(260.466 221.247)">
        <rect id="Rectangle_18" data-name="Rectangle 18" width="3.053" height="22.186" fill="#fe10c4"/>
      </g>
      <g id="Group_9" data-name="Group 9" transform="translate(125.805 1.527)">
        <rect id="Rectangle_19" data-name="Rectangle 19" width="142.19" height="186.415" fill="#2680eb"/>
      </g>
      <g id="Group_10" data-name="Group 10" transform="translate(137.992 13.715)">
        <path id="Path_39" data-name="Path 39" d="M557.125,1105.162H443.23V944.244h113.9Zm-110.841-3.055H554.071V947.3H446.285Z" transform="translate(-443.23 -944.244)" fill="#fff"/>
      </g>
      <g id="Group_11" data-name="Group 11" transform="translate(81.5 30.076)">
        <rect id="Rectangle_20" data-name="Rectangle 20" width="147.787" height="188.097" fill="#fff"/>
      </g>
      <g id="Group_12" data-name="Group 12" transform="translate(79.973 28.549)">
        <path id="Path_40" data-name="Path 40" d="M577.073,1139.741H426.231V948.59H577.073Zm-147.788-3.055H574.019V951.645H429.286Z" transform="translate(-426.231 -948.59)" fill="#05398b"/>
      </g>
      <g id="Group_13" data-name="Group 13" transform="translate(103.891 81.732)">
        <rect id="Rectangle_21" data-name="Rectangle 21" width="103.005" height="3.053" fill="#05398b"/>
      </g>
      <g id="Group_14" data-name="Group 14" transform="translate(103.891 97.405)">
        <rect id="Rectangle_22" data-name="Rectangle 22" width="103.005" height="3.053" fill="#05398b"/>
      </g>
      <g id="Group_15" data-name="Group 15" transform="translate(103.891 113.08)">
        <rect id="Rectangle_23" data-name="Rectangle 23" width="103.005" height="3.054" fill="#05398b"/>
      </g>
      <g id="Group_16" data-name="Group 16" transform="translate(103.891 128.756)">
        <rect id="Rectangle_24" data-name="Rectangle 24" width="103.005" height="3.053" fill="#05398b"/>
      </g>
      <g id="Group_17" data-name="Group 17" transform="translate(103.891 144.429)">
        <rect id="Rectangle_25" data-name="Rectangle 25" width="103.005" height="3.053" fill="#05398b"/>
      </g>
      <g id="Group_18" data-name="Group 18" transform="translate(103.891 160.106)">
        <rect id="Rectangle_26" data-name="Rectangle 26" width="103.005" height="3.053" fill="#05398b"/>
      </g>
      <g id="Group_21" data-name="Group 21" transform="translate(41.425 69.417)">
        <g id="Group_19" data-name="Group 19" transform="translate(1.528 1.526)">
          <rect id="Rectangle_27" data-name="Rectangle 27" width="141.072" height="184.736" fill="#fe10c4"/>
        </g>
        <g id="Group_20" data-name="Group 20">
          <path id="Path_41" data-name="Path 41" d="M559.062,1148.353H414.937V960.564H559.062ZM417.992,1145.3H556.011V963.615H417.992Z" transform="translate(-414.937 -960.564)" fill="#05398b"/>
        </g>
      </g>
      <g id="Group_22" data-name="Group 22" transform="translate(273.745 76.134)">
        <path id="Path_42" data-name="Path 42" d="M488.451,973.423a5.446,5.446,0,1,1,5.444-5.448A5.454,5.454,0,0,1,488.451,973.423Zm0-7.837a2.391,2.391,0,1,0,2.393,2.389A2.393,2.393,0,0,0,488.451,965.587Z" transform="translate(-483.004 -962.532)" fill="#fe10c4"/>
      </g>
      <g id="Group_23" data-name="Group 23" transform="translate(0 148.909)">
        <path id="Path_43" data-name="Path 43" d="M410.207,998.663a7.4,7.4,0,1,1,7.4-7.406A7.417,7.417,0,0,1,410.207,998.663Zm0-11.755a4.35,4.35,0,1,0,4.348,4.348A4.356,4.356,0,0,0,410.207,986.909Z" transform="translate(-402.8 -983.854)" fill="#fe10c4"/>
      </g>
      <g id="Group_24" data-name="Group 24" transform="translate(84.938 0)">
        <rect id="Rectangle_28" data-name="Rectangle 28" width="19.034" height="3.053" fill="#fe10c4"/>
      </g>
      <g id="Group_25" data-name="Group 25" transform="translate(246.162 157.305)">
        <rect id="Rectangle_29" data-name="Rectangle 29" width="38.067" height="3.053" fill="#fe10c4"/>
      </g>
      <g id="Group_26" data-name="Group 26" transform="translate(298.784 155.627)">
        <rect id="Rectangle_30" data-name="Rectangle 30" width="8.397" height="3.054" fill="#fe10c4"/>
      </g>
      <g id="Group_27" data-name="Group 27" transform="translate(199.698 237.919)">
        <rect id="Rectangle_31" data-name="Rectangle 31" width="22.394" height="3.054" fill="#fe10c4"/>
      </g>
      <g id="Group_39" data-name="Group 39" transform="translate(57.854 93.737)">
        <g id="Group_28" data-name="Group 28" transform="translate(56.635)">
          <rect id="Rectangle_32" data-name="Rectangle 32" width="3.054" height="16.428" fill="#fff"/>
        </g>
        <g id="Group_29" data-name="Group 29" transform="translate(0 52.428)">
          <rect id="Rectangle_33" data-name="Rectangle 33" width="16.43" height="3.053" fill="#fff"/>
        </g>
        <g id="Group_30" data-name="Group 30" transform="translate(16.144 12.602)">
          <rect id="Rectangle_34" data-name="Rectangle 34" width="3.053" height="16.428" transform="translate(0 2.159) rotate(-45.008)" fill="#fff"/>
        </g>
        <g id="Group_36" data-name="Group 36" transform="translate(21.972 27.563)">
          <g id="Group_31" data-name="Group 31" transform="translate(1.526 1.526)">
            <path id="Path_44" data-name="Path 44" d="M495.965,1010.875a34.665,34.665,0,1,0-55.586,27.588c3.055,3.792,6.54,9.539,6.54,16.079v11.646h28.762v-11.646c0-6.54,3.481-12.287,6.539-16.079A34.567,34.567,0,0,0,495.965,1010.875Z" transform="translate(-426.635 -976.212)" fill="#2680eb"/>
          </g>
          <g id="Group_32" data-name="Group 32">
            <path id="Path_45" data-name="Path 45" d="M478.286,1068.793H446.469v-13.171c0-6.058-3.284-11.465-6.086-14.977a36.193,36.193,0,1,1,43.988,0c-2.8,3.512-6.086,8.919-6.086,14.977Zm-28.762-3.051h25.711v-10.12c0-7.034,3.737-13.148,6.874-17.035l.266-.26a33.138,33.138,0,1,0-39.995,0l.266.26c3.137,3.887,6.877,10,6.877,17.035Z" transform="translate(-426.188 -975.765)" fill="#fff"/>
          </g>
          <g id="Group_33" data-name="Group 33" transform="translate(22.178 98.089)">
            <rect id="Rectangle_35" data-name="Rectangle 35" width="28.024" height="3.054" fill="#fff"/>
          </g>
          <g id="Group_34" data-name="Group 34" transform="translate(30.659 106.203)">
            <rect id="Rectangle_36" data-name="Rectangle 36" width="11.063" height="3.054" fill="#fff"/>
          </g>
          <g id="Group_35" data-name="Group 35" transform="translate(15.576 33.509)">
            <path id="Path_46" data-name="Path 46" d="M438.141,999.789l-7.389-10.657,2.511-1.741,4.879,7.044,6.143-8.851,6.137,8.851,6.146-8.848,6.158,8.853,4.905-7.049,2.5,1.741-7.41,10.651-6.158-8.847-6.152,8.853-6.131-8.851Z" transform="translate(-430.752 -985.583)" fill="#fff"/>
          </g>
        </g>
        <g id="Group_37" data-name="Group 37" transform="translate(99.715 52.428)">
          <rect id="Rectangle_37" data-name="Rectangle 37" width="16.43" height="3.053" fill="#fff"/>
        </g>
        <g id="Group_38" data-name="Group 38" transform="translate(86.226 12.601)">
          <rect id="Rectangle_38" data-name="Rectangle 38" width="16.428" height="3.053" transform="matrix(0.707, -0.707, 0.707, 0.707, 0, 11.617)" fill="#fff"/>
        </g>
      </g>
    </g>
  </g>
</svg>