<svg xmlns="http://www.w3.org/2000/svg" viewBox="455.94 0 168.06 164.85">
  <g id="Group_238" data-name="Group 238" transform="translate(-172.652 -2859)">
    <text id="seu_público_onde_ele_estiver" data-name="seu público onde ele estiver" transform="translate(172.652 3041.993)" fill="#05398b" font-size="60" font-family="MuseoSans-900, 'Museo Sans \39 00'" font-weight="900" letter-spacing="-0.05em"><tspan x="235" y="56"/><tspan fill="#fe10c4"><tspan x="100" y="120"/></tspan></text>
    <g id="Group_134" data-name="Group 134" transform="translate(-725.329 2612.949)">
      <g id="Group_107" data-name="Group 107" transform="translate(1357.13 246.051)">
        <g id="Group_102" data-name="Group 102" transform="translate(0 0)">
          <circle id="Ellipse_4" data-name="Ellipse 4" cx="58.284" cy="58.284" r="58.284" transform="translate(0 82.426) rotate(-45)" fill="#2680eb"/>
        </g>
        <g id="Group_103" data-name="Group 103" transform="translate(52.841 23.132)">
          <path id="Path_62" data-name="Path 62" d="M1413.771,377.288c-16.1,0-29.207-26.6-29.207-59.3s13.1-59.293,29.207-59.293,29.209,26.6,29.209,59.293S1429.876,377.288,1413.771,377.288Zm0-116.946c-15.2,0-27.562,25.861-27.562,57.649s12.365,57.651,27.562,57.651,27.563-25.863,27.563-57.651S1428.97,260.342,1413.771,260.342Z" transform="translate(-1384.564 -258.698)" fill="#fff"/>
        </g>
        <g id="Group_106" data-name="Group 106" transform="translate(25.28 52.842)">
          <g id="Group_104" data-name="Group 104">
            <rect id="Rectangle_68" data-name="Rectangle 68" width="119.214" height="1.645" fill="#fff"/>
          </g>
          <g id="Group_105" data-name="Group 105" transform="translate(0 48.253)">
            <rect id="Rectangle_69" data-name="Rectangle 69" width="119.214" height="1.645" fill="#fff"/>
          </g>
        </g>
      </g>
      <g id="Group_108" data-name="Group 108" transform="translate(1396.018 318.475)">
        <path id="Path_63" data-name="Path 63" d="M1404.006,285.647c-14.911,0-25.733,12.138-27,26.993-1.714,20.142,27,52.708,27,52.708s27-31.711,27-52.708A27,27,0,0,0,1404.006,285.647Z" transform="translate(-1376.935 -285.647)" fill="#fe10c4"/>
      </g>
      <g id="Group_109" data-name="Group 109" transform="translate(1456.224 259.608)">
        <path id="Path_64" data-name="Path 64" d="M1430.129,253.463c-11.17,0-19.275,9.094-20.223,20.222-1.286,15.084,20.223,39.479,20.223,39.479s20.22-23.752,20.22-39.479A20.221,20.221,0,0,0,1430.129,253.463Z" transform="translate(-1409.851 -253.463)" fill="#fff"/>
      </g>
      <g id="Group_110" data-name="Group 110" transform="translate(1455.401 258.785)">
        <path id="Path_65" data-name="Path 65" d="M1430.513,314.794l-.629-.712c-.887-1.008-21.724-24.835-20.423-40.1,1.033-12.152,9.883-20.974,21.042-20.974a21.069,21.069,0,0,1,21.044,21.045c0,15.847-19.584,39.032-20.418,40.013Zm-.011-60.135c-10.283,0-18.443,8.187-19.4,19.469-1.117,13.133,15.877,33.977,19.392,38.133,3.371-4.126,19.41-24.491,19.41-38.2A19.42,19.42,0,0,0,1430.5,254.659Z" transform="translate(-1409.402 -253.013)" fill="#05398b"/>
      </g>
      <g id="Group_111" data-name="Group 111" transform="translate(1465.295 265.183)">
        <path id="Path_66" data-name="Path 66" d="M1437.168,285.7h-22.357v-4.9a6.306,6.306,0,0,1,6.3-6.3h1.59V273.22a6.463,6.463,0,0,1-3.031-4.117,2.13,2.13,0,0,1-1.67-2.078v-1.957a2.13,2.13,0,0,1,1.5-2.034v-.022a6.5,6.5,0,0,1,13,0v.026a2.134,2.134,0,0,1,1.485,2.03v1.957a2.133,2.133,0,0,1-1.656,2.076,6.454,6.454,0,0,1-3.047,4.126V274.5h1.591a6.308,6.308,0,0,1,6.3,6.3Zm-20.713-1.644h19.066V280.8a4.661,4.661,0,0,0-4.651-4.657h-3.237v-3.922l.467-.225a4.835,4.835,0,0,0,2.714-3.783l.106-.858.852.146a.491.491,0,0,0,.565-.476v-1.957a.485.485,0,0,0-.484-.485l-.911.1-.09-1.672a4.855,4.855,0,0,0-9.711,0v1.725l-.949-.146a.48.48,0,0,0-.551.477v1.957a.484.484,0,0,0,.485.483l.85-.144.2.849a4.832,4.832,0,0,0,2.7,3.775l.463.225v3.929h-3.234a4.661,4.661,0,0,0-4.653,4.657Z" transform="translate(-1414.811 -256.511)" fill="#05398b"/>
      </g>
      <g id="Group_112" data-name="Group 112" transform="translate(1408.11 329.393)">
        <path id="Path_67" data-name="Path 67" d="M1404.607,317.411h-3.334l-.178-4.326a6.949,6.949,0,0,0,2.173-1.789h7.543c-3.294-.611-1.884-9.158-3.294-14.042s-5.654-5.639-9.065-5.639h-.121c-3.413,0-7.651.755-9.063,5.639s0,13.431-3.3,14.042h6.484a14.747,14.747,0,0,0,1.994,1.789v4.326h-3.333a7.57,7.57,0,0,0-7.571,7.569v5.639h28.627V324.98A7.568,7.568,0,0,0,1404.607,317.411Z" transform="translate(-1383.547 -291.616)" fill="#fff"/>
      </g>
      <g id="Group_113" data-name="Group 113" transform="translate(1407.289 328.57)">
        <path id="Path_68" data-name="Path 68" d="M1412.546,331.815h-28.627a.822.822,0,0,1-.821-.823v-5.639a8.4,8.4,0,0,1,8.392-8.392H1394v-3.1a15.548,15.548,0,0,1-1.542-1.368h-6.115a.822.822,0,0,1-.15-1.63c1.443-.269,1.65-3.815,1.835-6.943a31.541,31.541,0,0,1,.819-6.521c1.8-6.234,7.863-6.234,9.855-6.234,2.111,0,8.171,0,9.976,6.234a31.6,31.6,0,0,1,.82,6.517c.181,3.091.386,6.59,1.781,6.934a.824.824,0,0,1,.759.819.842.842,0,0,1-.839.823h-7.179a7.784,7.784,0,0,1-1.71,1.432l.124,3.036h2.544a8.4,8.4,0,0,1,8.39,8.392v5.639A.822.822,0,0,1,1412.546,331.815Zm-27.8-1.646h26.981v-4.816a6.753,6.753,0,0,0-6.744-6.747h-3.334a.821.821,0,0,1-.822-.788l-.177-4.324a.824.824,0,0,1,.437-.763,6.076,6.076,0,0,0,1.917-1.579.828.828,0,0,1,.64-.305h5.352c-.828-1.608-.98-4.174-1.136-6.833a30.44,30.44,0,0,0-.759-6.157c-.995-3.442-3.625-5.046-8.273-5.046-4.77,0-7.4,1.6-8.393,5.046a30.3,30.3,0,0,0-.759,6.16c-.157,2.66-.307,5.222-1.136,6.83h4.293a.825.825,0,0,1,.64.305,13.378,13.378,0,0,0,1.849,1.65.819.819,0,0,1,.327.657v4.326a.822.822,0,0,1-.823.821h-3.333a6.755,6.755,0,0,0-6.748,6.747Z" transform="translate(-1383.098 -291.166)" fill="#05398b"/>
      </g>
      <g id="Group_117" data-name="Group 117" transform="translate(1469.359 354.984)">
        <g id="Group_114" data-name="Group 114">
          <path id="Path_69" data-name="Path 69" d="M1426.943,325.432a9.913,9.913,0,1,1,9.913-9.912A9.923,9.923,0,0,1,1426.943,325.432Zm0-18.179a8.267,8.267,0,1,0,8.269,8.267A8.274,8.274,0,0,0,1426.943,307.253Z" transform="translate(-1417.033 -305.607)" fill="#05398b"/>
        </g>
        <g id="Group_115" data-name="Group 115" transform="translate(26.889 6.587)">
          <path id="Path_70" data-name="Path 70" d="M1442.368,315.86h-10.634v-6.652h10.634a3.326,3.326,0,0,1,0,6.652Zm-8.988-1.644h8.988a1.681,1.681,0,0,0,0-3.362h-8.988Z" transform="translate(-1431.734 -309.208)" fill="#05398b"/>
        </g>
        <g id="Group_116" data-name="Group 116" transform="translate(19.001 9.091)">
          <rect id="Rectangle_70" data-name="Rectangle 70" width="8.657" height="1.645" fill="#05398b"/>
        </g>
      </g>
      <g id="Group_120" data-name="Group 120" transform="translate(1404.251 279.917)">
        <g id="Group_118" data-name="Group 118">
          <path id="Path_71" data-name="Path 71" d="M1391.813,279.307l-10.376-7.482,10.532-7.259.933,1.356-8.61,5.935,8.483,6.117Z" transform="translate(-1381.437 -264.566)" fill="#05398b"/>
        </g>
        <g id="Group_119" data-name="Group 119" transform="translate(1.427 6.552)">
          <rect id="Rectangle_71" data-name="Rectangle 71" width="26.499" height="1.645" fill="#05398b"/>
        </g>
      </g>
      <g id="Group_123" data-name="Group 123" transform="translate(1385.079 364.598)">
        <g id="Group_121" data-name="Group 121" transform="translate(0 6.24)">
          <rect id="Rectangle_72" data-name="Rectangle 72" width="14.126" height="1.645" fill="#05398b"/>
        </g>
        <g id="Group_122" data-name="Group 122" transform="translate(6.24)">
          <rect id="Rectangle_73" data-name="Rectangle 73" width="1.645" height="14.126" fill="#05398b"/>
        </g>
      </g>
      <g id="Group_124" data-name="Group 124" transform="translate(1387.7 259.198)">
        <rect id="Rectangle_74" data-name="Rectangle 74" width="14.479" height="1.645" fill="#05398b"/>
      </g>
      <g id="Group_125" data-name="Group 125" transform="translate(1404.861 262.953)">
        <rect id="Rectangle_75" data-name="Rectangle 75" width="24.129" height="1.645" fill="#05398b"/>
      </g>
      <g id="Group_126" data-name="Group 126" transform="translate(1506.204 338.022)">
        <rect id="Rectangle_76" data-name="Rectangle 76" width="12.333" height="1.645" fill="#05398b"/>
      </g>
      <g id="Group_127" data-name="Group 127" transform="translate(1426.845 389.498)">
        <rect id="Rectangle_77" data-name="Rectangle 77" width="17.158" height="1.645" fill="#05398b"/>
      </g>
      <g id="Group_128" data-name="Group 128" transform="translate(1454.727 389.498)">
        <rect id="Rectangle_78" data-name="Rectangle 78" width="8.043" height="1.645" fill="#05398b"/>
      </g>
      <g id="Group_129" data-name="Group 129" transform="translate(1353.92 325.154)">
        <rect id="Rectangle_79" data-name="Rectangle 79" width="9.116" height="1.645" fill="#05398b"/>
      </g>
      <g id="Group_130" data-name="Group 130" transform="translate(1374.62 292.429)">
        <path id="Path_72" data-name="Path 72" d="M1385.167,281.374a9.965,9.965,0,1,1-9.965-9.967A9.964,9.964,0,0,1,1385.167,281.374Z" transform="translate(-1365.237 -271.407)" fill="#05398b"/>
      </g>
      <g id="Group_131" data-name="Group 131" transform="translate(1479.726 324.571)">
        <rect id="Rectangle_80" data-name="Rectangle 80" width="17.49" height="1.645" fill="#05398b"/>
      </g>
      <g id="Group_132" data-name="Group 132" transform="translate(1487.648 316.648)">
        <rect id="Rectangle_81" data-name="Rectangle 81" width="1.645" height="17.489" fill="#05398b"/>
      </g>
      <g id="Group_133" data-name="Group 133" transform="translate(1418.191 349.982)">
        <path id="Path_73" data-name="Path 73" d="M1393.347,305.416a8.13,8.13,0,0,1-3.885-.957.821.821,0,1,1,.835-1.414,6.759,6.759,0,0,0,6.259-.081.823.823,0,1,1,.756,1.461A8.526,8.526,0,0,1,1393.347,305.416Z" transform="translate(-1389.058 -302.873)" fill="#05398b"/>
      </g>
    </g>
  </g>
</svg>