<svg xmlns="http://www.w3.org/2000/svg" viewBox="344.48 0 173.52 141.28">
  <text id="eu_quero_ir_para_o_próximo_nível" data-name="eu quero ir para  o próximo nível" transform="translate(263 220.275)" fill="#fff" font-size="60" font-family="MuseoSans-900, 'Museo Sans \39 00'" font-weight="900" letter-spacing="-0.05em"><tspan x="-262.95" y="0"/><tspan fill="#fe10c4"><tspan x="-251.25" y="64"/></tspan></text>
  <g id="Group_219" data-name="Group 219" transform="translate(-850.922 -596.967)">
    <g id="Group_212" data-name="Group 212" transform="translate(1195.4 596.967)">
      <g id="Group_169" data-name="Group 169" transform="translate(93.084)">
        <circle id="Ellipse_5" data-name="Ellipse 5" cx="40.219" cy="40.219" r="40.219" fill="#fe10c4"/>
      </g>
      <g id="Group_170" data-name="Group 170" transform="translate(97.702 4.618)">
        <circle id="Ellipse_6" data-name="Ellipse 6" cx="26.076" cy="26.076" r="26.076" transform="translate(0 25.983) rotate(-29.882)" fill="#012758"/>
      </g>
      <g id="Group_171" data-name="Group 171" transform="translate(5.894 94.933)">
        <rect id="Rectangle_108" data-name="Rectangle 108" width="77.786" height="4.713" fill="#2680eb"/>
      </g>
      <g id="Group_172" data-name="Group 172" transform="translate(0 104.95)">
        <rect id="Rectangle_109" data-name="Rectangle 109" width="77.786" height="5.894" fill="#2680eb"/>
      </g>
      <g id="Group_197" data-name="Group 197" transform="translate(13.736 29.692)">
        <g id="Group_173" data-name="Group 173" transform="translate(17.705 0.883)">
          <rect id="Rectangle_110" data-name="Rectangle 110" width="106.455" height="68.681" fill="#fff"/>
        </g>
        <g id="Group_174" data-name="Group 174" transform="translate(16.82)">
          <path id="Path_90" data-name="Path 90" d="M1319.472,682.815H1211.248V612.367h108.224Zm-106.456-1.768H1317.7V614.135H1213.016Z" transform="translate(-1211.248 -612.367)" fill="#2680eb"/>
        </g>
        <g id="Group_175" data-name="Group 175" transform="translate(1.394 69.497)">
          <path id="Path_91" data-name="Path 91" d="M1326.013,648.413v.067H1219.558v-.067l-16.311,34.627h135.644Z" transform="translate(-1203.247 -648.413)" fill="#fff"/>
        </g>
        <g id="Group_176" data-name="Group 176" transform="translate(0 64.652)">
          <path id="Path_92" data-name="Path 92" d="M1340.835,686.255H1202.524l18.588-39.461v3.133H1325.8V645.9l1.712,4.536Zm-135.525-1.768h132.98L1326.095,651.7H1220.757Z" transform="translate(-1202.524 -645.9)" fill="#2680eb"/>
        </g>
        <g id="Group_183" data-name="Group 183" transform="translate(23.932 73.924)">
          <g id="Group_177" data-name="Group 177">
            <path id="Path_93" data-name="Path 93" d="M1220.625,662.086a5.689,5.689,0,1,1,5.692-5.688A5.694,5.694,0,0,1,1220.625,662.086Zm0-9.609a3.921,3.921,0,1,0,3.924,3.922A3.925,3.925,0,0,0,1220.625,652.477Z" transform="translate(-1214.937 -650.709)" fill="#2680eb"/>
          </g>
          <g id="Group_178" data-name="Group 178" transform="translate(16.895)">
            <path id="Path_94" data-name="Path 94" d="M1229.39,662.086a5.689,5.689,0,1,1,5.69-5.688A5.7,5.7,0,0,1,1229.39,662.086Zm0-9.609a3.921,3.921,0,1,0,3.922,3.922A3.926,3.926,0,0,0,1229.39,652.477Z" transform="translate(-1223.7 -650.709)" fill="#2680eb"/>
          </g>
          <g id="Group_179" data-name="Group 179" transform="translate(33.792)">
            <path id="Path_95" data-name="Path 95" d="M1238.154,662.086a5.689,5.689,0,1,1,5.689-5.688A5.7,5.7,0,0,1,1238.154,662.086Zm0-9.609a3.921,3.921,0,1,0,3.922,3.922A3.925,3.925,0,0,0,1238.154,652.477Z" transform="translate(-1232.464 -650.709)" fill="#2680eb"/>
          </g>
          <g id="Group_180" data-name="Group 180" transform="translate(50.69)">
            <path id="Path_96" data-name="Path 96" d="M1246.916,662.086a5.689,5.689,0,1,1,5.691-5.688A5.694,5.694,0,0,1,1246.916,662.086Zm0-9.609a3.921,3.921,0,1,0,3.924,3.922A3.925,3.925,0,0,0,1246.916,652.477Z" transform="translate(-1241.228 -650.709)" fill="#2680eb"/>
          </g>
          <g id="Group_181" data-name="Group 181" transform="translate(67.585)">
            <path id="Path_97" data-name="Path 97" d="M1255.681,662.086a5.689,5.689,0,1,1,5.688-5.688A5.7,5.7,0,0,1,1255.681,662.086Zm0-9.609a3.921,3.921,0,1,0,3.919,3.922A3.927,3.927,0,0,0,1255.681,652.477Z" transform="translate(-1249.991 -650.709)" fill="#2680eb"/>
          </g>
          <g id="Group_182" data-name="Group 182" transform="translate(84.106)">
            <path id="Path_98" data-name="Path 98" d="M1264.248,662.086a5.689,5.689,0,1,1,5.691-5.688A5.694,5.694,0,0,1,1264.248,662.086Zm0-9.609a3.921,3.921,0,1,0,3.923,3.922A3.925,3.925,0,0,0,1264.248,652.477Z" transform="translate(-1258.56 -650.709)" fill="#2680eb"/>
          </g>
        </g>
        <g id="Group_193" data-name="Group 193" transform="translate(13.043 88.755)">
          <g id="Group_189" data-name="Group 189">
            <g id="Group_184" data-name="Group 184">
              <path id="Path_99" data-name="Path 99" d="M1214.98,669.778a5.689,5.689,0,1,1,5.688-5.688A5.7,5.7,0,0,1,1214.98,669.778Zm0-9.609a3.921,3.921,0,1,0,3.92,3.922A3.927,3.927,0,0,0,1214.98,660.169Z" transform="translate(-1209.289 -658.401)" fill="#2680eb"/>
            </g>
            <g id="Group_185" data-name="Group 185" transform="translate(16.897)">
              <path id="Path_100" data-name="Path 100" d="M1223.741,669.778a5.689,5.689,0,1,1,5.691-5.688A5.693,5.693,0,0,1,1223.741,669.778Zm0-9.609a3.921,3.921,0,1,0,3.923,3.922A3.926,3.926,0,0,0,1223.741,660.169Z" transform="translate(-1218.053 -658.401)" fill="#2680eb"/>
            </g>
            <g id="Group_186" data-name="Group 186" transform="translate(33.793)">
              <path id="Path_101" data-name="Path 101" d="M1232.505,669.778a5.689,5.689,0,1,1,5.69-5.688A5.695,5.695,0,0,1,1232.505,669.778Zm0-9.609a3.921,3.921,0,1,0,3.922,3.922A3.927,3.927,0,0,0,1232.505,660.169Z" transform="translate(-1226.816 -658.401)" fill="#2680eb"/>
            </g>
            <g id="Group_187" data-name="Group 187" transform="translate(50.69)">
              <path id="Path_102" data-name="Path 102" d="M1241.27,669.778a5.689,5.689,0,1,1,5.688-5.688A5.695,5.695,0,0,1,1241.27,669.778Zm0-9.609a3.921,3.921,0,1,0,3.919,3.922A3.928,3.928,0,0,0,1241.27,660.169Z" transform="translate(-1235.58 -658.401)" fill="#2680eb"/>
            </g>
            <g id="Group_188" data-name="Group 188" transform="translate(67.587)">
              <path id="Path_103" data-name="Path 103" d="M1250.031,669.778a5.689,5.689,0,1,1,5.692-5.688A5.693,5.693,0,0,1,1250.031,669.778Zm0-9.609a3.921,3.921,0,1,0,3.924,3.922A3.926,3.926,0,0,0,1250.031,660.169Z" transform="translate(-1244.344 -658.401)" fill="#2680eb"/>
            </g>
          </g>
          <g id="Group_192" data-name="Group 192" transform="translate(84.484)">
            <g id="Group_190" data-name="Group 190">
              <path id="Path_104" data-name="Path 104" d="M1258.8,669.778a5.689,5.689,0,1,1,5.688-5.688A5.693,5.693,0,0,1,1258.8,669.778Zm0-9.609a3.921,3.921,0,1,0,3.922,3.922A3.927,3.927,0,0,0,1258.8,660.169Z" transform="translate(-1253.108 -658.401)" fill="#2680eb"/>
            </g>
            <g id="Group_191" data-name="Group 191" transform="translate(16.893)">
              <path id="Path_105" data-name="Path 105" d="M1267.56,669.778a5.689,5.689,0,1,1,5.689-5.688A5.695,5.695,0,0,1,1267.56,669.778Zm0-9.609a3.921,3.921,0,1,0,3.922,3.922A3.927,3.927,0,0,0,1267.56,660.169Z" transform="translate(-1261.87 -658.401)" fill="#2680eb"/>
            </g>
          </g>
        </g>
        <g id="Group_194" data-name="Group 194" transform="translate(0.169 104.704)">
          <path id="Path_106" data-name="Path 106" d="M1340.662,673.553H1202.612v-6.88h1.766v5.112H1338.9v-5.112h1.766Z" transform="translate(-1202.612 -666.673)" fill="#2680eb"/>
        </g>
        <g id="Group_195" data-name="Group 195" transform="translate(133.275 58.217)">
          <path id="Path_107" data-name="Path 107" d="M1276.658,652.58a5.009,5.009,0,1,1,5.009-5.011A5.015,5.015,0,0,1,1276.658,652.58Zm0-8.25a3.241,3.241,0,1,0,3.241,3.239A3.243,3.243,0,0,0,1276.658,644.33Z" transform="translate(-1271.649 -642.562)" fill="#fff"/>
        </g>
        <g id="Group_196" data-name="Group 196" transform="translate(0.094 11.073)">
          <path id="Path_108" data-name="Path 108" d="M1206.7,626.36a4.125,4.125,0,1,1,4.126-4.124A4.129,4.129,0,0,1,1206.7,626.36Zm0-6.482a2.357,2.357,0,1,0,2.358,2.358A2.36,2.36,0,0,0,1206.7,619.878Z" transform="translate(-1202.573 -618.11)" fill="#fff"/>
        </g>
      </g>
      <g id="Group_198" data-name="Group 198" transform="translate(42.724 50.441)">
        <rect id="Rectangle_111" data-name="Rectangle 111" width="55.983" height="39.188" fill="#d6d2c6"/>
      </g>
      <g id="Group_199" data-name="Group 199" transform="translate(87.509 36.032)">
        <rect id="Rectangle_112" data-name="Rectangle 112" width="41.84" height="34.151" fill="#fe10c4"/>
      </g>
      <g id="Group_200" data-name="Group 200" transform="translate(47.732 57.217)">
        <rect id="Rectangle_113" data-name="Rectangle 113" width="40.367" height="7.367" fill="#fff"/>
      </g>
      <g id="Group_201" data-name="Group 201" transform="translate(88.835 41.897)">
        <rect id="Rectangle_114" data-name="Rectangle 114" width="37.495" height="2.03" fill="#fff"/>
      </g>
      <g id="Group_202" data-name="Group 202" transform="translate(88.835 46.569)">
        <rect id="Rectangle_115" data-name="Rectangle 115" width="37.495" height="2.03" fill="#fff"/>
      </g>
      <g id="Group_203" data-name="Group 203" transform="translate(8.537 8.468)">
        <path id="Path_109" data-name="Path 109" d="M1224.6,601.359h-24.777v17.15c0,4.911,4.481,8.894,10.006,8.894h11.776l8.5,7.558V627.4h4.5V610.251C1234.612,605.342,1230.133,601.359,1224.6,601.359Z" transform="translate(-1199.828 -601.359)" fill="#fe10c4"/>
      </g>
      <g id="Group_204" data-name="Group 204" transform="translate(17.404 17.974)">
        <rect id="Rectangle_116" data-name="Rectangle 116" width="17.09" height="1.768" fill="#fff"/>
      </g>
      <g id="Group_205" data-name="Group 205" transform="translate(17.404 23.894)">
        <rect id="Rectangle_117" data-name="Rectangle 117" width="17.09" height="1.768" fill="#fff"/>
      </g>
      <g id="Group_208" data-name="Group 208" transform="translate(11.4 61.005)">
        <g id="Group_206" data-name="Group 206" transform="translate(0 6.432)">
          <rect id="Rectangle_118" data-name="Rectangle 118" width="14.632" height="1.768" fill="#fff"/>
        </g>
        <g id="Group_207" data-name="Group 207" transform="translate(6.433)">
          <rect id="Rectangle_119" data-name="Rectangle 119" width="1.768" height="14.631" fill="#fff"/>
        </g>
      </g>
      <g id="Group_211" data-name="Group 211" transform="translate(152.829 102.255)">
        <g id="Group_209" data-name="Group 209" transform="translate(0 6.433)">
          <rect id="Rectangle_120" data-name="Rectangle 120" width="14.632" height="1.768" fill="#fff"/>
        </g>
        <g id="Group_210" data-name="Group 210" transform="translate(6.431)">
          <rect id="Rectangle_121" data-name="Rectangle 121" width="1.768" height="14.633" fill="#fff"/>
        </g>
      </g>
    </g>
    <g id="Group_218" data-name="Group 218" transform="translate(1247.8 609.341)">
      <g id="Group_213" data-name="Group 213" transform="translate(0.885 0.885)">
        <path id="Path_110" data-name="Path 110" d="M1223.037,617.711v25.415h63.4V603.844h-63.4v39.281h63.4V617.711Z" transform="translate(-1223.037 -603.844)" fill="#2680eb"/>
      </g>
      <g id="Group_214" data-name="Group 214">
        <path id="Path_111" data-name="Path 111" d="M1287.749,644.435h-65.171v-41.05h65.171Zm-63.4-1.768h61.635V605.153h-61.635Z" transform="translate(-1222.578 -603.385)" fill="#0f0f10"/>
      </g>
      <g id="Group_215" data-name="Group 215" transform="translate(0.384 2.668)">
        <path id="Path_112" data-name="Path 112" d="M1254.979,628.316l-32.2-22.09,1-1.457,31.2,21.4,31.2-21.4,1,1.457Z" transform="translate(-1222.777 -604.769)" fill="#0f0f10"/>
      </g>
      <g id="Group_216" data-name="Group 216" transform="translate(0.393 20.847)">
        <rect id="Rectangle_122" data-name="Rectangle 122" width="32.157" height="1.768" transform="matrix(0.824, -0.566, 0.566, 0.824, 0, 18.214)" fill="#0f0f10"/>
      </g>
      <g id="Group_217" data-name="Group 217" transform="translate(37.268 20.859)">
        <rect id="Rectangle_123" data-name="Rectangle 123" width="1.768" height="32.158" transform="translate(0 1.458) rotate(-55.554)" fill="#0f0f10"/>
      </g>
    </g>
  </g>
</svg>