<svg xmlns="http://www.w3.org/2000/svg" viewBox="297.53 40.61 283.63 240.78">
  <g id="Group_236" data-name="Group 236" transform="translate(-288.563 -3815.237)">
    <text id="relatório_mensal" data-name="relatório mensal" transform="translate(288.563 3815.237)" fill="#00398b" font-size="47" font-family="MuseoSans-900, 'Museo Sans \39 00'" font-weight="900" letter-spacing="-0.05em"><tspan x="100" y="44"/><tspan fill="#fe10c4"><tspan x="170" y="86"/></tspan></text>
    <g id="Group_101" data-name="Group 101" transform="translate(586.09 3855.844)">
      <g id="Group_42" data-name="Group 42" transform="translate(110.202 0)">
        <g id="Group_41" data-name="Group 41">
          <rect id="Rectangle_39" data-name="Rectangle 39" width="173.427" height="165.113" fill="#fe10c4"/>
        </g>
      </g>
      <g id="Group_92" data-name="Group 92" transform="translate(0 7.808)">
        <g id="Group_43" data-name="Group 43" transform="translate(83.752 123.819)">
          <path id="Path_47" data-name="Path 47" d="M491.059,131.032l-61.683,55.774A83.17,83.17,0,0,0,573.768,122.29Z" transform="translate(-429.376 -122.29)" fill="#2680eb"/>
        </g>
        <g id="Group_45" data-name="Group 45" transform="translate(81.798 122.3)">
          <g id="Group_44" data-name="Group 44">
            <path id="Path_48" data-name="Path 48" d="M492.484,216.609h-.006a84.669,84.669,0,0,1-62.8-27.843l-.926-1.024,63.044-57,84.53-8.934.139,1.374a84.565,84.565,0,0,1-83.985,93.427Zm-59.817-28.675a81.915,81.915,0,0,0,59.811,25.914h.006a81.809,81.809,0,0,0,81.376-89l-80.875,8.547Z" transform="translate(-428.756 -121.808)" fill="#05398b"/>
          </g>
        </g>
        <g id="Group_46" data-name="Group 46" transform="translate(45.949 50.278)">
          <path id="Path_49" data-name="Path 49" d="M429.685,223.01a83.559,83.559,0,0,0,9.073,12.158L500.545,179.5l-20.74-80.547a83.215,83.215,0,0,0-50.12,124.056Z" transform="translate(-417.38 -98.954)" fill="#fff"/>
        </g>
        <g id="Group_48" data-name="Group 48" transform="translate(44.547 48.598)">
          <g id="Group_47" data-name="Group 47">
            <path id="Path_50" data-name="Path 50" d="M439.612,238.265l-.92-1.027a84.834,84.834,0,0,1-9.224-12.36A84.586,84.586,0,0,1,480.416,98.765l1.339-.344,21.288,82.69-.621.561ZM479.777,101.8a81.828,81.828,0,0,0-39.947,132.558l60.126-54.173Z" transform="translate(-416.935 -98.421)" fill="#05398b"/>
          </g>
        </g>
        <g id="Group_49" data-name="Group 49" transform="translate(112.537 15.728)">
          <path id="Path_51" data-name="Path 51" d="M477.109,89.992a83.108,83.108,0,0,0-38.6.558l20.528,80.6Z" transform="translate(-438.51 -87.991)" fill="#05398b"/>
        </g>
        <g id="Group_51" data-name="Group 51" transform="translate(110.861 14.36)">
          <g id="Group_50" data-name="Group 50">
            <path id="Path_52" data-name="Path 52" d="M460.274,178.035l-22.3-87.546,1.336-.34a84.9,84.9,0,0,1,39.235-.57l1.349.3ZM441.338,92.493l18.76,73.642,16.5-74.15A82.1,82.1,0,0,0,441.338,92.493Z" transform="translate(-437.978 -87.557)" fill="#fff"/>
          </g>
        </g>
        <g id="Group_52" data-name="Group 52" transform="translate(149.371 37.852)">
          <path id="Path_53" data-name="Path 53" d="M532.92,167.563a83.213,83.213,0,0,0-64.809-72.552L450.2,176.2Z" transform="translate(-450.198 -95.011)" fill="#fff"/>
        </g>
        <g id="Group_54" data-name="Group 54" transform="translate(147.609 36.207)">
          <g id="Group_53" data-name="Group 53">
            <path id="Path_54" data-name="Path 54" d="M449.639,178.9l18.625-84.411,1.346.3a84.574,84.574,0,0,1,65.88,73.756l.145,1.374Zm20.727-81.108-17.207,77.963,79.434-8.3a81.831,81.831,0,0,0-62.228-69.665Z" transform="translate(-449.639 -94.489)" fill="#05398b"/>
          </g>
        </g>
        <g id="Group_56" data-name="Group 56" transform="translate(0 79.564)">
          <g id="Group_55" data-name="Group 55">
            <path id="Path_55" data-name="Path 55" d="M424.674,130.124H402.8V108.247h21.874Zm-19.11-2.764H421.91v-16.35H405.564Z" transform="translate(-402.8 -108.247)" fill="#05398b"/>
          </g>
        </g>
        <g id="Group_57" data-name="Group 57" transform="translate(238.035 182.69)">
          <rect id="Rectangle_40" data-name="Rectangle 40" width="19.11" height="19.113" fill="#fe10c4"/>
        </g>
        <g id="Group_59" data-name="Group 59" transform="translate(236.656 181.311)">
          <g id="Group_58" data-name="Group 58">
            <path id="Path_56" data-name="Path 56" d="M499.766,162.407H477.9V140.533h21.871Zm-19.11-2.761H497V143.294H480.656Z" transform="translate(-477.895 -140.533)" fill="#05398b"/>
          </g>
        </g>
        <g id="Group_60" data-name="Group 60" transform="translate(245.344 59.024)">
          <rect id="Rectangle_41" data-name="Rectangle 41" width="19.11" height="19.111" fill="#2680eb"/>
        </g>
        <g id="Group_62" data-name="Group 62" transform="translate(243.964 57.643)">
          <g id="Group_61" data-name="Group 61">
            <path id="Path_57" data-name="Path 57" d="M502.085,123.165H480.214V101.291h21.871Zm-19.11-2.764h16.35v-16.35h-16.35Z" transform="translate(-480.214 -101.291)" fill="#05398b"/>
          </g>
        </g>
        <g id="Group_63" data-name="Group 63" transform="translate(58.718 15.74)">
          <rect id="Rectangle_42" data-name="Rectangle 42" width="19.11" height="19.111" fill="#fe10c4"/>
        </g>
        <g id="Group_65" data-name="Group 65" transform="translate(57.337 14.358)">
          <g id="Group_64" data-name="Group 64">
            <path id="Path_58" data-name="Path 58" d="M442.868,109.43H420.994V87.556h21.874Zm-19.113-2.761H440.1V90.32h-16.35Z" transform="translate(-420.994 -87.556)" fill="#05398b"/>
          </g>
        </g>
        <g id="Group_67" data-name="Group 67" transform="translate(19.931 91.37)">
          <g id="Group_66" data-name="Group 66">
            <rect id="Rectangle_43" data-name="Rectangle 43" width="68.016" height="2.762" fill="#05398b"/>
          </g>
        </g>
        <g id="Group_69" data-name="Group 69" transform="translate(78.956 22.791)">
          <g id="Group_68" data-name="Group 68">
            <rect id="Rectangle_44" data-name="Rectangle 44" width="47.778" height="2.762" fill="#05398b"/>
          </g>
        </g>
        <g id="Group_71" data-name="Group 71" transform="translate(186.319 67.198)">
          <g id="Group_70" data-name="Group 70">
            <rect id="Rectangle_45" data-name="Rectangle 45" width="58.463" height="2.762" fill="#05398b"/>
          </g>
        </g>
        <g id="Group_73" data-name="Group 73" transform="translate(154.28 189.741)">
          <g id="Group_72" data-name="Group 72">
            <rect id="Rectangle_46" data-name="Rectangle 46" width="84.877" height="2.762" fill="#05398b"/>
          </g>
        </g>
        <g id="Group_77" data-name="Group 77" transform="translate(199.814 13.1)">
          <g id="Group_76" data-name="Group 76">
            <g id="Group_74" data-name="Group 74" transform="translate(0 11.891)">
              <rect id="Rectangle_47" data-name="Rectangle 47" width="26.538" height="2.762" fill="#05398b"/>
            </g>
            <g id="Group_75" data-name="Group 75" transform="translate(11.888)">
              <rect id="Rectangle_48" data-name="Rectangle 48" width="2.762" height="26.542" fill="#05398b"/>
            </g>
          </g>
        </g>
        <g id="Group_79" data-name="Group 79" transform="translate(112.683 230.215)">
          <g id="Group_78" data-name="Group 78">
            <rect id="Rectangle_49" data-name="Rectangle 49" width="77.574" height="2.762" fill="#fe10c4"/>
          </g>
        </g>
        <g id="Group_81" data-name="Group 81" transform="translate(167.769)">
          <g id="Group_80" data-name="Group 80">
            <path id="Path_59" data-name="Path 59" d="M470.923,90.444A7.444,7.444,0,1,1,463.48,83,7.444,7.444,0,0,1,470.923,90.444Z" transform="translate(-456.036 -83)" fill="#05398b"/>
          </g>
        </g>
        <g id="Group_83" data-name="Group 83" transform="translate(246.466 119.171)">
          <g id="Group_82" data-name="Group 82">
            <path id="Path_60" data-name="Path 60" d="M509.677,135.151a14.334,14.334,0,1,1-14.333-14.336A14.332,14.332,0,0,1,509.677,135.151Z" transform="translate(-481.008 -120.815)" fill="#fff"/>
          </g>
        </g>
        <g id="Group_91" data-name="Group 91" transform="translate(22.057 139.816)">
          <g id="Group_86" data-name="Group 86">
            <g id="Group_85" data-name="Group 85">
              <g id="Group_84" data-name="Group 84">
                <path id="Path_61" data-name="Path 61" d="M409.8,209.344l13.715-13.135a42.64,42.64,0,1,1,14.342,11.544C422.08,215.647,409.8,209.344,409.8,209.344Z" transform="translate(-409.799 -127.366)" fill="#fe10c4"/>
              </g>
            </g>
          </g>
          <g id="Group_87" data-name="Group 87" transform="translate(57.649 12.867)">
            <rect id="Rectangle_50" data-name="Rectangle 50" width="8.943" height="47.077" transform="translate(8.943 47.077) rotate(180)" fill="#fff"/>
          </g>
          <g id="Group_88" data-name="Group 88" transform="translate(41.17 34.993)">
            <rect id="Rectangle_51" data-name="Rectangle 51" width="8.943" height="24.952" transform="translate(8.943 24.952) rotate(180)" fill="#fff"/>
          </g>
          <g id="Group_89" data-name="Group 89" transform="translate(24.692 41.348)">
            <rect id="Rectangle_52" data-name="Rectangle 52" width="8.943" height="18.597" transform="translate(8.943 18.597) rotate(180)" fill="#fff"/>
          </g>
          <g id="Group_90" data-name="Group 90" transform="translate(17.233 58.415)">
            <rect id="Rectangle_53" data-name="Rectangle 53" width="56.899" height="2.762" fill="#fff"/>
          </g>
        </g>
      </g>
      <g id="Group_96" data-name="Group 96" transform="translate(13.038 144.437)">
        <g id="Group_95" data-name="Group 95">
          <g id="Group_93" data-name="Group 93" transform="translate(0 7.937)">
            <rect id="Rectangle_54" data-name="Rectangle 54" width="18.636" height="2.762" fill="#05398b"/>
          </g>
          <g id="Group_94" data-name="Group 94" transform="translate(7.934)">
            <rect id="Rectangle_55" data-name="Rectangle 55" width="2.762" height="18.636" fill="#05398b"/>
          </g>
        </g>
      </g>
      <g id="Group_98" data-name="Group 98" transform="translate(174.922 227.605)">
        <g id="Group_97" data-name="Group 97">
          <rect id="Rectangle_56" data-name="Rectangle 56" width="43.485" height="2.762" fill="#fe10c4"/>
        </g>
      </g>
      <g id="Group_100" data-name="Group 100" transform="translate(95.865 8.219)">
        <g id="Group_99" data-name="Group 99">
          <rect id="Rectangle_57" data-name="Rectangle 57" width="32.611" height="2.762" fill="#05398b"/>
        </g>
      </g>
    </g>
  </g>
</svg>